<?xml version="1.0" standalone="no"?>
<!DOCTYPE svg PUBLIC "-//W3C//DTD SVG 20010904//EN"
 "http://www.w3.org/TR/2001/REC-SVG-20010904/DTD/svg10.dtd">
<svg version="1.0" xmlns="http://www.w3.org/2000/svg"
 width="700.000000pt" height="700.000000pt" viewBox="0 0 700.000000 700.000000"
 preserveAspectRatio="xMidYMid meet">
<metadata>
Created by potrace 1.11, written by Peter Selinger 2001-2013
</metadata>
<g transform="translate(0.000000,700.000000) scale(0.100000,-0.100000)"
fill="#000000" stroke="none">
<path d="M1180 5451 c-119 -36 -226 -179 -299 -400 -85 -255 -141 -702 -141
-1131 0 -229 24 -601 47 -715 5 -29 5 -29 -13 -13 -37 32 -71 39 -147 27 -275
-42 -522 -292 -599 -607 -24 -100 -29 -294 -9 -376 20 -83 62 -159 121 -218
48 -48 68 -60 129 -78 103 -32 222 -25 306 16 111 54 242 208 335 394 l33 65
19 -55 c85 -251 237 -416 416 -450 220 -43 422 89 635 415 36 55 73 116 82
136 l18 37 59 -48 c128 -103 262 -145 433 -137 288 14 525 195 736 563 28 49
53 91 54 93 2 1 21 -11 42 -28 84 -67 213 -99 319 -80 125 23 271 126 358 253
l38 54 39 -78 c57 -113 152 -201 250 -231 82 -25 189 -23 272 6 292 103 636
608 730 1071 l14 69 116 3 c115 3 118 2 144 -24 25 -25 26 -28 20 -122 -3 -54
-15 -153 -27 -222 -18 -100 -21 -150 -17 -250 7 -179 46 -281 146 -380 136
-137 346 -166 536 -76 188 89 353 274 551 620 82 143 88 180 36 227 -21 18
-43 29 -63 29 -58 0 -81 -22 -149 -146 -103 -188 -177 -292 -285 -401 -142
-144 -248 -191 -370 -164 -66 15 -126 65 -162 135 -40 76 -42 198 -9 440 39
285 32 384 -34 460 -54 61 -115 80 -277 84 l-143 4 0 43 c0 63 -25 185 -50
243 -12 27 -37 65 -56 83 -31 30 -42 34 -87 34 -40 0 -60 -6 -82 -23 -106 -83
-215 -300 -215 -429 0 -105 48 -148 181 -163 45 -5 83 -11 84 -12 1 -2 -10
-50 -25 -108 -49 -190 -171 -430 -309 -607 -123 -158 -236 -236 -341 -236
-157 0 -242 143 -269 451 -11 121 -24 152 -71 172 -72 30 -132 -20 -149 -123
-47 -278 -242 -507 -411 -482 -123 19 -179 98 -188 266 -17 338 221 629 515
629 76 0 162 -28 214 -70 48 -38 86 -53 119 -45 59 15 94 86 71 144 -21 49
-126 118 -241 157 -81 28 -231 25 -330 -5 -215 -66 -373 -204 -476 -416 -63
-130 -76 -193 -79 -377 l-3 -157 -62 -123 c-151 -301 -313 -472 -502 -529
-133 -41 -298 -13 -397 66 -82 65 -82 65 17 125 117 71 264 218 314 315 53
103 71 181 66 295 -3 80 -9 104 -33 153 -35 70 -98 130 -172 164 -49 23 -64
25 -146 21 -116 -5 -185 -36 -268 -119 -166 -166 -220 -477 -134 -774 l25 -87
-47 -96 c-100 -204 -262 -406 -372 -461 -173 -89 -311 16 -414 314 -19 55 -42
134 -52 176 l-18 75 61 155 c180 460 299 867 376 1281 44 239 59 406 60 648 0
242 -13 340 -64 474 -29 77 -117 169 -175 185 -45 12 -118 13 -155 2z m123
-223 c43 -51 67 -194 67 -413 0 -453 -100 -974 -293 -1527 -72 -205 -73 -206
-81 -122 -4 38 -13 137 -22 219 -21 212 -29 675 -15 865 39 520 142 922 254
990 36 22 63 18 90 -12z m3964 -948 l6 -70 -52 0 c-28 0 -51 4 -51 10 0 15 40
113 57 139 14 21 17 22 25 7 5 -9 12 -48 15 -86z m-2807 -835 c91 -87 40 -294
-110 -446 -61 -61 -168 -139 -193 -139 -2 0 -9 19 -15 43 -41 165 -10 375 73
489 65 89 181 114 245 53z m-1626 -564 l25 -153 -54 -124 c-163 -378 -292
-515 -446 -474 -105 29 -157 141 -146 319 10 172 66 300 176 412 73 73 155
118 262 144 94 23 115 33 130 62 l14 26 7 -29 c4 -16 18 -98 32 -183z"/>
</g>
</svg>
