<?xml version="1.0" encoding="utf-8"?>
<!-- Generator: Adobe Illustrator 22.0.1, SVG Export Plug-In . SVG Version: 6.00 Build 0)  -->
<svg version="1.1" id="Layer_1" xmlns="http://www.w3.org/2000/svg" xmlns:xlink="http://www.w3.org/1999/xlink" x="0px" y="0px"
	 viewBox="0 0 1400 700" style="enable-background:new 0 0 1400 700;" xml:space="preserve">
<style type="text/css">
	.st0{fill:#EC5F39;}
</style>
<title>Artboard 6 copy</title>
<path class="st0" d="M346.3,465.2c12.4,58.6,30.5,87.9,54.1,87.9c9.1,0,17.9-3.4,26.3-10.1c8.8-7.2,16.7-15.5,23.4-24.7
	c7.3-9.8,13.7-20.2,19.2-31c5.6-10.9,10.1-20.4,13.7-28.5c2.5-6.1,7-9.1,13.3-9.1c3.9-0.1,7.7,1.6,10.3,4.6c2.6,2.6,4.1,6.2,4.2,9.9
	c0,1.8-0.3,3.7-1.1,5.3c-1.8,4.3-4.4,10.1-7.8,17.3s-7.6,15-12.6,23.2c-5,8.3-10.5,16.7-16.6,25.3c-5.9,8.4-12.7,16.2-20.2,23.2
	c-7,6.6-14.9,12.3-23.4,16.9c-8,4.4-17,6.6-26.1,6.6c-16.4,0.3-32.2-6.1-43.8-17.7c-12.2-11.8-22.7-31.3-31.6-58.4
	c-12.2,25.9-24.5,44.7-36.9,56.3c-12.4,11.7-25.9,17.5-40.4,17.5c-7.5,0-15-1.2-22.1-3.6c-7.1-2.4-13.5-6.5-18.6-12
	c-5.3-5.6-9.6-12.8-12.9-21.5s-5-19.5-5-32.2c0-17.5,3-33.6,9.1-48.3c5.6-13.9,13.6-26.7,23.6-37.9c9.1-10.1,20-18.4,32.2-24.5
	c11.8-5.8,23.5-8.7,35.2-8.8c3.7,0,7.3,1.4,9.9,4c2.8,2.6,4.3,6.3,4.2,10.1c0,3.5-1.2,6.9-3.4,9.5c-2.3,2.8-5.6,4.6-9.1,5
	c-8.4,1.2-16.6,3.6-24.4,7.2c-8.9,4-17,9.6-23.8,16.6c-7.2,7.2-13.2,16.4-17.9,27.6s-7,24.5-7,40c0,12.7,2.6,22.6,7.8,29.7
	s12.8,10.7,22.6,10.7c4.5-0.1,9-1.2,13-3.2c4.6-2.2,9.4-6.4,14.6-12.8s10.9-15.3,17.1-27c6.2-11.7,13.1-27,20.8-46.1
	c-4.3-22.3-8.3-48.1-11.8-77.3c-3.6-29.2-5.4-61.8-5.4-97.9c0-15.7,0.5-32.2,1.5-49.3c1-17.1,2.7-33.9,5-50.2
	c2.2-15.7,5.2-31.3,9.1-46.6c3.3-13.4,7.9-26.4,13.8-38.8c5.5-11.2,11.9-20,19.2-26.5c6.9-6.3,15.8-9.7,25.1-9.7
	c8.4,0,15.5,2.3,21.3,6.9s10.6,10.9,14.3,19c3.7,8.1,6.4,17.9,8.2,29.3c1.9,12.5,2.7,25.1,2.7,37.7c0,29.6-2.6,59.2-7.6,88.3
	c-4.9,28.5-11.2,56.7-18.8,84.5c-7.5,26.9-15.4,51.8-23.8,74.6C360.8,428.9,353.1,448.6,346.3,465.2z M390.8,158.3
	c0-6.3-0.2-13.2-0.6-20.6c-0.3-7-1.2-13.9-2.7-20.8c-1.1-5.6-2.9-11.1-5.5-16.2c-2.3-4.3-5.3-6.5-9.1-6.5c-6.3,0-12.2,5.6-17.7,16.8
	c-5.5,11.2-10.2,25.8-14.3,44c-4.4,20.4-7.6,40.9-9.7,61.7c-2.4,23.1-3.6,46.3-3.6,69.5c0,22.3,0.9,44.7,2.7,67s3.8,42.3,6.1,59.8
	c7.3-19.5,14.3-39.6,20.9-60.3c6.6-20.7,12.4-41.8,17.3-63.4c4.9-21.6,8.9-43.3,11.8-65.3C389.3,202.2,390.8,180.3,390.8,158.3
	L390.8,158.3z"/>
<path class="st0" d="M515.6,469.3c5.4,7.4,12.4,13.4,20.5,17.7c8.4,4.4,18.7,6.7,30.8,6.7c11.9,0.1,23.6-3,33.9-9
	c10.5-6.2,19.9-14.1,27.8-23.4c8.6-9.9,16.1-20.7,22.5-32.2c6.6-11.9,12.6-23.9,17.9-35.8c1.1-2.6,3-4.8,5.3-6.3
	c2.3-1.4,4.9-2.1,7.6-2.1c4-0.1,7.8,1.5,10.5,4.6c2.5,2.7,3.9,6.2,4,9.9c0,1.1-0.1,2.2-0.4,3.2c-0.3,1-0.7,1.9-1.2,2.8
	c-17.5,38.6-36.6,67.6-57.3,87.2s-44.1,29.6-70.2,30.1c-16.7,0-31.2-3.2-43.4-9.7c-11.7-6.1-22-14.7-30.1-25.1
	c-7.9-10.4-13.9-22.2-17.5-34.8c-3.8-12.6-5.7-25.7-5.7-38.8c-0.1-12.1,1.5-24.1,4.8-35.8c2.9-10.2,7.5-19.9,13.7-28.5
	c5.6-7.8,12.9-14.3,21.3-19c8.3-4.6,17.7-6.9,27.2-6.8c6,0,11.9,1.2,17.3,3.5c5.7,2.4,11,5.9,15.4,10.3c4.7,4.6,8.4,10.1,11,16.2
	c2.9,6.9,4.3,14.3,4.2,21.7c0.1,10-1.7,20-5.3,29.3c-3.6,9.2-8.5,17.8-14.7,25.5c-6.5,8.1-14,15.4-22.3,21.7
	C534.7,458.8,525.4,464.6,515.6,469.3z M504.1,444.6c7.7-3.2,14.9-7.4,21.5-12.6c6.2-4.8,11.8-10.5,16.6-16.8
	c4.4-5.9,8-12.3,10.7-19.2c2.5-6.5,3.8-13.4,3.8-20.4c0-7.6-1.9-13.4-5.7-17.3c-3.4-3.8-8.2-5.9-13.3-5.9
	c-6.3-0.2-12.5,1.8-17.5,5.7c-5,4-9,9.1-11.8,14.8c-3.2,6.4-5.4,13.3-6.7,20.4c-1.4,7.3-2.1,14.8-2.1,22.3c0,4.9,0.5,9.7,1.3,14.5
	C501.8,435.2,502.9,440,504.1,444.6z"/>
<path class="st0" d="M968.9,332.9c-1,2-3.1,6.2-6.3,12.8c-3.2,6.5-7.2,13.9-12.2,22.3c-5,8.4-10.7,17.1-17.3,26.3
	c-6.5,9.1-13.9,17.5-22.1,25.1c-7.9,7.4-16.7,13.8-26.3,18.8c-9.1,4.9-19.3,7.4-29.7,7.4c-14.7,0-27.1-4.7-37.1-14.1
	c-10-9.4-17.3-21.2-21.9-35.4c-8.6,14.5-18.9,26-30.8,34.5c-11.9,8.5-23.8,12.7-35.8,12.8c-8.8,0.1-17.5-1.6-25.5-5.1
	c-7.5-3.3-14.1-8.3-19.4-14.5c-5.5-6.5-9.7-13.9-12.4-21.9c-3-8.8-4.5-18.1-4.4-27.4c0-19.8,3.4-37.2,10.1-52.3
	c6.7-15.1,15.3-27.7,25.7-37.9c9.9-9.8,21.5-17.5,34.4-22.8c12.6-5.1,24.7-7.6,36.4-7.6c7.4-0.1,14.7,1,21.7,3.2
	c5.8,1.9,11.5,4.2,16.9,7.1c3.8,2,7.5,4.3,10.8,7c2.5,2.2,3.9,3.4,4.2,3.6c2.6,2.8,4.1,6.5,4.2,10.3c0,3.8-1.5,7.4-4.1,10.1
	c-2.5,2.8-6.1,4.4-9.9,4.4c-3.9,0.1-7.6-1.4-10.3-4.2c-0.5-0.5-1.7-1.5-3.4-2.9c-2.3-1.7-4.7-3.2-7.2-4.4c-3.5-1.7-7.1-3-10.8-4
	c-4.7-1.2-9.5-1.8-14.3-1.7c-7.9,0-16.3,1.8-25.1,5.3c-9.2,3.8-17.5,9.4-24.4,16.6c-7.3,7.5-13.5,16.9-18.5,28.2
	c-5,11.3-7.4,24.7-7.4,40.2c0,4.9,0.5,9.8,1.5,14.7c0.9,4.8,2.8,9.4,5.3,13.5c2.6,4.1,6.1,7.5,10.3,9.9c4.3,2.5,9.7,3.8,16,3.8
	c4.6,0,9.8-1.5,15.8-4.6c6.6-3.5,12.4-8.3,17.1-14.1c6-7.3,11-15.3,14.8-24c4.4-9.6,7.5-21.1,9.3-34.3c0.5-3.5,2.2-6.7,5-8.9
	c2.7-2.4,6.3-3.7,9.9-3.6c3.6,0,7,1.5,9.3,4.2c2.5,2.6,4.1,5.9,4.4,9.5c0.2,4.8,0.7,11.6,1.5,20.4c0.8,8.8,2.5,17.6,5.1,26.1
	c2.4,8.2,6.5,15.9,12,22.5c5.3,6.4,12.7,9.5,22.1,9.5c6.4-0.1,12.6-1.8,18.1-5c6.4-3.6,12.3-8,17.5-13.1c6-5.7,11.4-12,16.4-18.7
	c5.2-7,10-14,14.3-21.1c4.3-7.1,8.1-14,11.4-20.6c3.3-6.6,6.1-12.3,8.4-17.1c1.2-2.6,3.1-4.8,5.5-6.4c2.3-1.5,5-2.3,7.8-2.3
	c4-0.1,7.9,1.6,10.5,4.8c2.5,2.8,3.9,6.3,4,10.1C970,329.4,969.7,331.2,968.9,332.9z"/>
<path class="st0" d="M984.4,275.4c-0.9,6.5-2.2,12.9-3.8,19.2c-1.5,6-3,11.2-4.4,15.6s-2.6,8-3.6,10.8c-0.5,1.6-1.1,3.1-1.9,4.6
	c-2.5,5.8-7,8.8-13.3,8.8c-3.7-0.1-7.2-1.5-9.9-4c-3-2.5-4.6-6.2-4.5-10.1c-0.1-1.2,0.2-2.4,0.8-3.4c0.9-1.5,1.6-3,2.3-4.6
	c1.5-3.7,2.8-7.5,3.8-11.4c1.5-5.3,3.4-13.6,5.7-24.7c-4.3,0-8.8-0.1-13.3-0.4c-4.4-0.2-8.7-1.1-12.8-2.7c-3.8-1.5-7.2-4-9.7-7.2
	c-2.5-3.3-3.8-7.9-3.8-13.7c0-4.3,1.2-10.1,3.6-17.5c2.5-7.5,5.7-14.8,9.7-21.7c3.8-6.7,8.4-12.9,13.8-18.5
	c5.1-5.2,10.1-7.8,15.2-7.8c5.5-0.2,10.8,2.2,14.3,6.5c3.8,4.7,6.7,10,8.5,15.8c2.1,6.4,3.5,12.9,4.4,19.6
	c0.8,5.9,1.3,11.9,1.3,17.9c4.3,0,8.6-0.1,12.8-0.2s8.2-0.2,12-0.2c14.5,0,25.5,3.2,33.1,9.5c7.6,6.3,11.4,16.8,11.4,31.2
	c0,6.1-0.4,12.2-1.1,18.3c-0.8,6.3-1.7,12.9-2.7,19.6s-1.9,13.4-2.7,20c-0.8,6.4-1.1,12.9-1.2,19.4c0,9.1,1.3,16.7,3.8,22.7
	c2.1,5.4,5.4,10.2,9.5,14.3c3.5,3.3,7.6,5.9,12.2,7.4c3.8,1.3,7.8,2,11.8,2.1c10.9,0,21.2-3.6,30.8-10.7c9.9-7.4,18.9-16,26.7-25.7
	c8.1-10,15.4-20.6,21.9-31.8c6.5-11.2,11.9-20.9,16.2-29.3c1.2-2.2,3.1-4.1,5.3-5.3c2.2-1.2,4.7-1.9,7.2-1.9c4.6,0,8.1,1.5,10.7,4.4
	c2.4,2.6,3.8,6.1,3.8,9.7c0,2.4-0.5,4.7-1.5,6.8c-5.8,10.4-12.6,22.1-20.4,35.2c-7.7,13-16.6,25.3-26.5,36.7
	c-9.6,11.2-20.9,21-33.3,28.9c-12.1,7.8-26.2,11.9-40.5,11.8c-8.9,0.1-17.7-1.7-25.9-5.1c-8-3.4-15.2-8.4-21.1-14.8
	c-6.3-7-11.1-15.1-14.3-24c-3.5-9.5-5.3-20.2-5.3-32.2c0-12.7,1.3-25.4,3.8-37.9c2.5-11.8,3.7-23.9,3.8-36c0-4.8-1.1-8.4-3.2-10.8
	s-6.9-3.6-14.3-3.6H998C993.8,275,989.3,275.2,984.4,275.4z M958.9,247.3c0-1.8-0.1-4.1-0.2-7s-0.4-5.8-0.8-8.6
	c-0.3-2.4-0.8-4.9-1.5-7.2c-0.6-2-1.3-3-2.1-3s-1.7,1-2.9,2.9s-2.3,4.2-3.6,6.8c-1.3,2.8-2.5,5.6-3.4,8.6c-1,3.1-1.8,5.6-2.3,7.6
	L958.9,247.3z"/>
<path class="st0" d="M723,540.2l-2.6,21.5h-6.5l2.7-21.5h-3.6l0.7-6h3.6l1.6-12.7h6.4l-1.6,12.7h6l-0.7,6H723z"/>
<path class="st0" d="M750,512.5l-3,24.1c2.2-1.9,5-2.9,7.9-3c2.3-0.1,4.6,0.6,6.4,2.1c1.6,1.4,2.5,3.4,2.5,5.5c0,0.5,0,1.2-0.1,1.8
	s-0.1,1.5-0.2,2.3l-2,16.3H755l2.1-16.7c0.1-0.8,0.2-1.6,0.2-2.4c0-2.5-1.4-3.7-4.3-3.7c-4.1,0-6.5,2.8-7.2,8.4l-1.7,14.4h-6.4
	l6-49.2L750,512.5z"/>
<path class="st0" d="M783,550.2c-0.1,1.9,0.7,3.7,2.1,5c1.5,1.3,3.4,2.1,5.4,2c2.7,0.1,5.4-1.1,6.9-3.4l4.8,2.7
	c-1.3,2-3.1,3.6-5.2,4.7c-2.1,1-4.4,1.4-6.7,1.4c-4.2,0-7.6-1.3-10.2-3.8c-2.6-2.7-3.9-6.3-3.8-10c-0.1-4.1,1.4-8,4.2-11
	c2.7-2.9,6.5-4.5,10.5-4.4c3.7-0.2,7.2,1.3,9.7,4c2.4,2.7,3.6,6.2,3.6,10.7c0,0.5,0,1.2-0.1,2.3L783,550.2z M797.8,545.1
	c-0.7-4.2-3-6.4-7-6.4c-3.8,0-6.2,2.1-7.4,6.4H797.8z"/>
<path class="st0" d="M852.8,512.5l-6,49.2h-6.4l6.1-49.2H852.8z"/>
<path class="st0" d="M868.3,550.2c-0.1,1.9,0.7,3.7,2.1,5c1.5,1.3,3.4,2.1,5.4,2c2.7,0.1,5.4-1.1,6.9-3.4l4.8,2.7
	c-1.3,2-3.1,3.6-5.2,4.7c-2.1,1-4.4,1.4-6.7,1.4c-4.2,0-7.6-1.3-10.2-3.8c-2.6-2.7-3.9-6.3-3.8-10c-0.1-4.1,1.4-8,4.2-11
	c2.7-2.9,6.5-4.5,10.5-4.4c3.6-0.2,7.2,1.3,9.6,4c2.4,2.7,3.6,6.2,3.6,10.7c0,0.5,0,1.2-0.1,2.3L868.3,550.2z M883.1,545.1
	c-0.7-4.2-3-6.4-7-6.4c-3.8,0-6.3,2.1-7.4,6.4H883.1z"/>
<path class="st0" d="M910.8,540.2l-2.7,21.5h-6.4l2.7-21.5h-3.6l0.7-6h3.6l1.6-12.7h6.4l-1.6,12.7h5.9l-0.7,6H910.8z"/>
<path class="st0" d="M934.3,540.2l-2.7,21.5h-6.5l2.7-21.5h-3.6l0.7-6h3.6l1.6-12.7h6.4l-1.6,12.7h5.9l-0.7,6L934.3,540.2z"/>
<path class="st0" d="M955.9,550.2c-0.1,1.9,0.7,3.7,2.1,5c1.5,1.3,3.4,2.1,5.4,2c2.7,0.1,5.4-1.1,6.9-3.4l4.8,2.7
	c-1.3,1.9-3.1,3.6-5.2,4.7c-2.1,1-4.4,1.4-6.7,1.4c-4.2,0-7.6-1.3-10.2-3.8c-2.5-2.5-3.8-5.8-3.8-10c-0.1-4.1,1.4-8,4.2-11
	c2.7-2.9,6.5-4.5,10.5-4.4c3.7-0.2,7.2,1.3,9.7,4c2.4,2.7,3.6,6.2,3.6,10.7c0,0.5,0,1.2-0.1,2.3L955.9,550.2z M970.7,545.1
	c-0.7-4.2-3-6.4-7-6.4c-3.8,0-6.3,2.1-7.4,6.4H970.7z"/>
<path class="st0" d="M998.6,534.2l-0.3,2.4c2.2-2.1,4.4-3.1,6.6-3.1c2,0,3.9,0.8,5.3,2.1l-4.1,5.3c-1-0.9-2.2-1.5-3.5-1.5
	c-0.8,0-1.5,0.1-2.2,0.5c-0.7,0.4-1.2,0.9-1.6,1.5c-0.5,0.8-0.9,1.7-1.1,2.7c-0.3,1.3-0.6,2.6-0.7,3.9l-1.7,13.7h-6.4l3.4-27.5
	L998.6,534.2z"/>
<path class="st0" d="M1037.8,537.3l-3.6,3.6c-1.7-1.5-3.3-2.3-4.8-2.3c-0.9,0-1.8,0.3-2.5,0.8c-0.6,0.5-1,1.2-1,2
	c0,0.7,0.3,1.5,0.8,2c1,0.9,2.2,1.7,3.4,2.3c1.9,0.9,3.6,2.2,5,3.8c0.9,1.3,1.4,2.8,1.3,4.4c0.1,2.4-0.9,4.7-2.7,6.3
	c-2,1.6-4.6,2.4-7.2,2.3c-4,0-7.3-1.8-10-5.5l4.2-2.9c1.7,2.1,3.6,3.1,5.5,3.1c1,0,1.9-0.3,2.7-0.9c0.7-0.6,1-1.4,1-2.3
	c0-0.8-0.3-1.5-0.8-2c-0.5-0.4-0.9-0.7-1.4-1c-0.7-0.5-1.6-1-2.8-1.6c-1.6-0.8-3.1-1.9-4.3-3.3c-0.8-1.2-1.2-2.7-1.2-4.2
	c-0.1-2.4,1-4.6,2.7-6.2c1.9-1.7,4.4-2.6,7-2.5C1032.5,533.4,1035.6,534.8,1037.8,537.3z"/>
<path class="st0" d="M1102.8,547.7c0.1,4-1.5,7.8-4.4,10.6c-2.8,2.8-6.7,4.4-10.7,4.3c-4,0.2-7.9-1.3-10.9-4
	c-2.8-2.7-4.4-6.4-4.2-10.3c-0.1-4,1.5-7.9,4.4-10.6c3-2.8,7-4.4,11.1-4.2c3.9-0.2,7.8,1.3,10.6,4
	C1101.4,540.1,1103,543.8,1102.8,547.7z M1096.3,547.4c0.1-2.3-0.7-4.6-2.3-6.3c-1.6-1.6-3.8-2.5-6-2.4c-2.4-0.1-4.8,0.9-6.4,2.7
	c-1.7,1.8-2.6,4.2-2.5,6.7c-0.1,2.4,0.7,4.8,2.4,6.6c1.6,1.7,3.8,2.6,6.2,2.5c2.4,0.1,4.7-1,6.2-2.8
	C1095.5,552.5,1096.4,549.9,1096.3,547.4z"/>
<path class="st0" d="M1123.9,540.2l-2.6,21.5h-6.4l2.7-21.5h-4.2l0.7-6h4.2l1.5-12.3c0.4-3.3,1.3-5.7,2.7-7.2
	c1.5-1.6,3.7-2.4,5.9-2.3c1.9,0.1,3.8,0.6,5.4,1.5l-0.7,5.7c-0.9-0.9-2.1-1.4-3.3-1.5c-1-0.1-2,0.4-2.6,1.2
	c-0.7,1.4-1.1,2.9-1.2,4.4l-1.3,10.5h5.8l-0.7,6L1123.9,540.2z"/>
<path class="st0" d="M753.1,611.8l-2.7,21.5H744l2.7-21.5H743l0.7-6h3.6l1.6-12.7h6.4l-1.6,12.7h5.9l-0.7,6H753.1z"/>
<path class="st0" d="M808.9,605.8l-17.7,30.3l-5.5-17.7l-9.8,17.7l-10-30.3h6.8l4.8,16.8l9.8-17.5l5.2,17.5l9-16.8L808.9,605.8z"/>
<path class="st0" d="M846.2,619.3c0.1,4-1.5,7.8-4.4,10.6c-2.8,2.8-6.7,4.4-10.7,4.3c-4,0.2-7.9-1.3-10.9-4
	c-2.8-2.7-4.4-6.4-4.2-10.3c-0.1-4,1.5-7.9,4.4-10.6c3-2.8,7-4.4,11.1-4.3c3.9-0.1,7.7,1.3,10.6,4
	C844.8,611.7,846.3,615.4,846.2,619.3z M839.7,619c0.1-2.3-0.7-4.6-2.3-6.3c-1.6-1.6-3.8-2.5-6-2.4c-2.4-0.1-4.7,0.9-6.4,2.7
	c-1.7,1.8-2.6,4.2-2.5,6.7c-0.1,2.4,0.7,4.8,2.4,6.6c1.6,1.7,3.8,2.6,6.2,2.5c2.4,0,4.7-1,6.2-2.8
	C838.9,624.1,839.8,621.6,839.7,619L839.7,619z"/>
<path class="st0" d="M891.6,611.8l-2.6,21.5h-6.4l2.7-21.5H881l0.7-6h4.2l1.5-12.3c0.4-3.3,1.3-5.7,2.7-7.2c1.5-1.6,3.7-2.4,5.9-2.3
	c1.9,0.1,3.8,0.6,5.4,1.5l-0.7,5.7c-0.9-0.9-2.1-1.4-3.3-1.5c-1-0.1-2,0.4-2.6,1.2c-0.7,1.4-1.1,2.9-1.2,4.4l-1.3,10.5h5.8l-0.7,6
	H891.6z"/>
<path class="st0" d="M916.2,605.8l-0.2,2.4c2.2-2.1,4.4-3.1,6.6-3.1c2,0,3.9,0.8,5.3,2.1l-4.1,5.3c-1-0.9-2.2-1.5-3.5-1.5
	c-0.7,0-1.5,0.2-2.2,0.5c-0.7,0.3-1.3,0.9-1.7,1.5c-0.5,0.8-0.9,1.7-1.1,2.7c-0.3,1.3-0.6,2.6-0.7,3.9l-1.7,13.7h-6.4l3.4-27.5
	L916.2,605.8z"/>
<path class="st0" d="M945.6,605.8l-3.4,27.5h-6.4l3.4-27.5H945.6z M947.6,592.8c0,0.9-0.3,1.8-1,2.4c-1.3,1.4-3.5,1.4-4.9,0.1
	c0,0,0,0-0.1-0.1c-0.7-0.7-1-1.6-1-2.5c0-1.9,1.5-3.4,3.4-3.4C946,589.3,947.6,590.9,947.6,592.8L947.6,592.8z"/>
<path class="st0" d="M963.8,621.9c-0.1,1.9,0.7,3.7,2.1,5c1.5,1.3,3.4,2,5.4,2c2.7,0.1,5.4-1.1,6.9-3.4l4.8,2.7
	c-1.3,2-3.1,3.6-5.2,4.7c-2.1,1-4.4,1.5-6.7,1.4c-4.2,0-7.6-1.2-10.2-3.8c-2.6-2.7-4-6.3-3.8-10c-0.1-4.1,1.4-8,4.2-11
	c2.7-2.9,6.5-4.5,10.5-4.4c3.7-0.2,7.2,1.3,9.7,4c2.4,2.7,3.6,6.2,3.6,10.7c0,0.5,0,1.2-0.1,2.3L963.8,621.9z M978.5,616.7
	c-0.7-4.2-3-6.3-7-6.3c-3.8,0-6.2,2.1-7.4,6.3H978.5z"/>
<path class="st0" d="M1006.4,605.8l-0.3,2.5c2.1-2,4.8-3.1,7.7-3.2c2.4-0.1,4.7,0.7,6.4,2.2c1.6,1.6,2.5,3.8,2.4,6.1
	c0,1.7-0.1,3.3-0.3,5l-1.8,14.8h-6.4l2-16.2c0.1-0.6,0.1-1.1,0.2-1.6s0-0.9,0-1.2c0-2.5-1.3-3.7-4-3.7c-1.6,0-3.1,0.5-4.2,1.5
	c-1,0.8-1.7,1.8-2.2,2.9c-0.3,0.7-0.5,1.4-0.6,2.1c-0.2,0.8-0.3,1.8-0.5,2.9l-1.6,13.2h-6.4l3.4-27.5L1006.4,605.8z"/>
<path class="st0" d="M1069.1,584.1l-6.1,49.2h-6.4l0.3-3c-1.2,1.2-2.6,2.1-4.1,2.9c-1.4,0.5-2.8,0.7-4.3,0.7c-3.5,0.1-7-1.3-9.4-3.8
	c-2.5-2.7-3.8-6.2-3.7-9.9c-0.1-4,1.3-7.8,4-10.8c2.6-2.8,6.3-4.4,10.1-4.3c1.8-0.1,3.6,0.3,5.2,1.1c1.8,1,3.3,2.2,4.6,3.8l3.2-25.9
	H1069.1z M1058.5,618.4c0.2-4.1-2.9-7.6-6.9-7.8c-0.3,0-0.6,0-0.9,0c-2.4,0-4.7,1-6.3,2.8c-1.7,2-2.6,4.5-2.5,7.1
	c-0.1,2.2,0.7,4.3,2.1,5.9c1.5,1.5,3.6,2.3,5.7,2.2c2.4,0,4.7-1.1,6.2-3C1057.7,623.6,1058.6,621,1058.5,618.4z"/>
<path class="st0" d="M1098.2,608.9l-3.6,3.6c-1.7-1.5-3.3-2.3-4.8-2.3c-0.9,0-1.8,0.3-2.5,0.8c-0.6,0.5-1,1.2-1,2
	c0,0.8,0.3,1.5,0.8,2c1,0.9,2.2,1.7,3.4,2.3c1.9,0.9,3.6,2.2,5,3.8c0.9,1.3,1.4,2.8,1.3,4.4c0.1,2.4-0.9,4.7-2.7,6.3
	c-2,1.6-4.6,2.4-7.2,2.3c-4,0-7.3-1.8-10-5.5l4.2-2.9c1.7,2.1,3.6,3.1,5.5,3.1c1,0,1.9-0.3,2.7-0.9c0.7-0.6,1-1.4,1-2.3
	c0-0.8-0.3-1.5-0.8-2c-0.4-0.4-0.9-0.7-1.4-1c-0.7-0.4-1.6-1-2.8-1.6c-1.6-0.8-3.1-2-4.3-3.3c-0.8-1.2-1.2-2.7-1.2-4.2
	c0-2.4,1-4.6,2.7-6.2c1.9-1.7,4.4-2.6,7-2.5C1093,605,1096,606.5,1098.2,608.9z"/>
</svg>
