<svg id="Layer_1" data-name="Layer 1" xmlns="http://www.w3.org/2000/svg" viewBox="0 0 450 150"><defs><style>.cls-1,.cls-2{fill:none;stroke-miterlimit:10;}.cls-1{stroke:#f4481e;stroke-width:3px;}.cls-2{stroke:#f04a23;stroke-width:2px;}.cls-3{font-size:35px;fill:#f04a23;font-family:FuturaPT-Book, Futura PT;}.cls-4{letter-spacing:-0.01em;}</style></defs><title>Artboard 1</title><path id="_Path_" data-name=" Path " class="cls-1" d="M144.18,108.74a19.48,19.48,0,0,1-12.36,11.09A39.86,39.86,0,0,1,120.7,121H79.3a39.9,39.9,0,0,1-11.12-1.17,19.49,19.49,0,0,1-12.35-11.08C54,104.16,54,99,54,95.7h0V54.3h0c0-3.27,0-8.46,1.82-13a19.38,19.38,0,0,1,5.89-7.72,19.15,19.15,0,0,1,6.47-3.37A39.9,39.9,0,0,1,79.3,29h41.4a39.86,39.86,0,0,1,11.12,1.17,19.49,19.49,0,0,1,12.35,11.08C146,45.84,146,51,146,54.3V95.7C146,99,146,104.16,144.18,108.74Z"/><g id="_Group_" data-name=" Group "><path class="cls-2" d="M106.65,82.1a10.49,10.49,0,0,0-13.33,0,4.24,4.24,0,0,0-1.22,2.65,34,34,0,0,0,.15,7c.24,2.82.69,6.58,1.28,10.42a39,39,0,0,0,1.09,5.24c.5,1.7,2.4,3.2,5.37,3.2s4.86-1.49,5.37-3.2a39.11,39.11,0,0,0,1.08-5.25c.59-3.83,1-7.59,1.27-10.41a34.84,34.84,0,0,0,.16-7A4.22,4.22,0,0,0,106.65,82.1Zm-14.18-13A7.53,7.53,0,1,0,100,61.6a7.54,7.54,0,0,0-7.53,7.53Zm7.44-29.71A32.37,32.37,0,0,0,89.29,102.3a.42.42,0,0,0,.55-.24.45.45,0,0,0,0-.23c-.17-1.1-.33-2.22-.47-3.31a1.11,1.11,0,0,0-.65-.88,28.22,28.22,0,1,1,22.51,0,1.12,1.12,0,0,0-.66.88c-.14,1.09-.3,2.2-.47,3.3a.43.43,0,0,0,.35.5.46.46,0,0,0,.23,0,32.35,32.35,0,0,0-10.8-62.88Zm-.59,14.85A17.52,17.52,0,0,1,112,84.57a1.34,1.34,0,0,0-.43,1.05,30.29,30.29,0,0,1,0,3.69.43.43,0,0,0,.4.46.43.43,0,0,0,.27-.08,21.69,21.69,0,1,0-24.39,0,.42.42,0,0,0,.59-.12.48.48,0,0,0,.07-.26,30.43,30.43,0,0,1,0-3.7,1.34,1.34,0,0,0-.42-1,17.53,17.53,0,0,1,11.3-30.3Z"/></g><text class="cls-3" transform="translate(187.51 86.51)">Apple <tspan class="cls-4" x="90.86" y="0">P</tspan><tspan x="106.57" y="0">odcasts</tspan></text><rect class="cls-1" x="12.5" y="3.5" width="429" height="143" rx="12" ry="12"/></svg>