<svg id="Layer_1" data-name="Layer 1" xmlns="http://www.w3.org/2000/svg" viewBox="0 0 450 150"><defs><style>.cls-1,.cls-2{fill:none;stroke-miterlimit:10;}.cls-1{stroke:#f4481e;stroke-width:3px;}.cls-2{stroke:#f04a23;stroke-width:2px;}.cls-3{font-size:35px;fill:#f04a23;font-family:FuturaPT-Book, Futura PT;}.cls-4{letter-spacing:-0.01em;}</style></defs><title>Artboard 1</title><path id="_Path_" data-name=" Path " class="cls-1" d="M134.68,109.24a19.48,19.48,0,0,1-12.36,11.09,39.86,39.86,0,0,1-11.12,1.17H69.8a39.9,39.9,0,0,1-11.12-1.17,19.49,19.49,0,0,1-12.35-11.08c-1.81-4.59-1.83-9.78-1.83-13h0V54.8h0c0-3.27,0-8.46,1.82-13A19.38,19.38,0,0,1,52.21,34a19.15,19.15,0,0,1,6.47-3.37A39.9,39.9,0,0,1,69.8,29.5h41.4a39.86,39.86,0,0,1,11.12,1.17,19.49,19.49,0,0,1,12.35,11.08c1.83,4.59,1.83,9.78,1.83,13V96.2C136.5,99.47,136.5,104.66,134.68,109.24Z"/><g id="_Group_" data-name=" Group "><path class="cls-2" d="M97.15,82.6a9.22,9.22,0,0,0-6.66-2.39,9.23,9.23,0,0,0-6.67,2.39,4.24,4.24,0,0,0-1.22,2.65,34,34,0,0,0,.15,7C83,95,83.44,98.79,84,102.63a39,39,0,0,0,1.09,5.24c.5,1.7,2.4,3.2,5.37,3.2s4.86-1.49,5.37-3.2a39.11,39.11,0,0,0,1.08-5.25c.59-3.83,1-7.59,1.27-10.41a34.84,34.84,0,0,0,.16-7A4.22,4.22,0,0,0,97.15,82.6ZM83,69.63A7.53,7.53,0,1,0,90.5,62.1,7.54,7.54,0,0,0,83,69.63Zm7.44-29.71A32.37,32.37,0,0,0,79.79,102.8a.42.42,0,0,0,.55-.24.45.45,0,0,0,0-.23c-.17-1.1-.33-2.22-.47-3.31a1.11,1.11,0,0,0-.65-.88,28.22,28.22,0,1,1,22.51,0,1.12,1.12,0,0,0-.66.88c-.14,1.09-.3,2.2-.47,3.3a.43.43,0,0,0,.35.5.46.46,0,0,0,.23,0,32.35,32.35,0,0,0-10.8-62.88Zm-.59,14.85a17.52,17.52,0,0,1,12.68,30.3,1.34,1.34,0,0,0-.43,1.05,30.29,30.29,0,0,1,0,3.69.43.43,0,0,0,.4.46.43.43,0,0,0,.27-.08,21.69,21.69,0,1,0-24.39,0,.42.42,0,0,0,.59-.12.48.48,0,0,0,.07-.26,30.43,30.43,0,0,1,0-3.7,1.34,1.34,0,0,0-.42-1,17.53,17.53,0,0,1,11.3-30.3Z"/></g><text class="cls-3" transform="translate(188.81 87.01)">Apple <tspan class="cls-4" x="90.86" y="0">P</tspan><tspan x="106.57" y="0">odcasts</tspan></text><rect class="cls-1" x="10.5" y="3.5" width="429" height="143" rx="12" ry="12"/></svg>