<svg id="Layer_1" data-name="Layer 1" xmlns="http://www.w3.org/2000/svg" viewBox="0 0 300 150"><defs><style>.cls-1,.cls-2,.cls-3{fill:none;}.cls-2{stroke:#f4481e;}.cls-2,.cls-3{stroke-miterlimit:10;}.cls-3{stroke:#f04a23;}.cls-4{font-size:35px;fill:#f04a23;font-family:FuturaPT-Book, Futura PT;}</style></defs><title>Artboard 2</title><rect class="cls-1" x="15" y="25.5" width="100" height="100"/><rect class="cls-1" x="15" y="25.5" width="100" height="100"/><path class="cls-2" d="M56.56,43.3,34.69,30.86c-3-1.66-5.63-1.51-7.24.06h0a6.9,6.9,0,0,0-1.77,5.15v78.81A7.11,7.11,0,0,0,27.45,120h0c1.66,1.62,4.27,1.77,7.24,0L104.17,80.6c5-2.81,5-7.39,0-10.26l-6.88-3.9"/><path class="cls-3" d="M97.08,84.56a32.27,32.27,0,0,0,1.25-9.06,33.33,33.33,0,1,0-42,32.19Z"/><circle class="cls-2" cx="65" cy="75.5" r="20.83"/><path class="cls-3" d="M65.26,64.82V77.14a4.84,4.84,0,0,0-7.05,5.76,4.8,4.8,0,0,0,4.6,3.28h0a5,5,0,0,0,5-4.86V69.51h4.69V64.82Z"/><text class="cls-4" transform="translate(151.75 66.01)">Google<tspan x="0" y="33">Play</tspan></text></svg>