<svg id="Layer_1" data-name="Layer 1" xmlns="http://www.w3.org/2000/svg" viewBox="0 0 450 150"><defs><style>.cls-1,.cls-4{fill:none;stroke-miterlimit:10;stroke-width:3px;}.cls-1{stroke:#eb5f38;}.cls-2{font-size:35px;fill:#f04a23;font-family:FuturaPT-Book, Futura PT;}.cls-3{letter-spacing:-0.01em;}.cls-4{stroke:#f4481e;}</style></defs><title>Artboard 3</title><path id="Combined-Shape" class="cls-1" d="M106.83,43.31s24.69-7.87,37.17-2.12v79.5c-17.38-8.13-34.61,7.75-51.8,0V106.93M115.94,78l1.79-.4c2.2-.51,2.42-1.9,2.42-3.66V65.48c0-1.87-.22-3-2.42-2.53l-1.79.44Zm0,8.42v20.7a77.5,77.5,0,0,1-9.55,1.65V57a103.88,103.88,0,0,0,13.54-2.56c8.12-1.83,9.8,2.19,9.84,8.52V73.34a11,11,0,0,1-9.33,12Z"/><path id="Combined-Shape-2" class="cls-1" d="M92.6,106.53c-12.73,1.09-25.87,8-38.6,2.19V29.41c17.45,7.93,34.9-7.94,52.39,0V43.86M77.93,64.67l1.86-.44c1.94-.43,2.67-1.28,2.67-3.65V53.51c0-2.23-.44-2.85-2.37-2.41l-2.16.51Zm0,30.66a71.14,71.14,0,0,1-9.52,1.61V45.25a130,130,0,0,0,15-2.89c5.82-1.28,8.75,1.68,8.75,7.31v8.16A8.29,8.29,0,0,1,88,65.15a5.28,5.28,0,0,1,4.25,5.78V88.49A7,7,0,0,0,93,92.15v.36A69.43,69.43,0,0,0,83.45,94c-.47-.43-.84-1.5-.84-3.65V75.25c0-2.42-.59-2.93-2.52-2.49l-2.16.36Z"/><text class="cls-2" transform="translate(188.11 85.88)"><tspan class="cls-3">R</tspan><tspan x="17.22" y="0">a</tspan><tspan class="cls-3" x="35.63" y="0">d</tspan><tspan x="53.69" y="0">io Public</tspan></text><rect class="cls-4" x="10.5" y="3.5" width="429" height="143" rx="12" ry="12"/></svg>