<svg id="Layer_1" data-name="Layer 1" xmlns="http://www.w3.org/2000/svg" viewBox="0 0 1400 1400"><defs><style>.cls-1{fill:#ec5f39;}</style></defs><title>Artboard 6 copy</title><path class="cls-1" d="M346.27,815.15q18.66,87.93,54.06,87.93,13.71,0,26.26-10.09A132.33,132.33,0,0,0,450,868.25a221.57,221.57,0,0,0,19.23-31q8.37-16.35,13.71-28.54,3.8-9.13,13.32-9.14a13.39,13.39,0,0,1,10.27,4.57,14.39,14.39,0,0,1,4.19,9.89,11.76,11.76,0,0,1-1.14,5.33q-2.67,6.48-7.8,17.32t-12.56,23.22q-7.43,12.39-16.56,25.32a149.27,149.27,0,0,1-20.18,23.22,113.19,113.19,0,0,1-23.41,16.94A54.25,54.25,0,0,1,403,932a60.68,60.68,0,0,1-43.77-17.7q-18.27-17.7-31.6-58.43-18.27,38.82-36.92,56.34t-40.35,17.51a68.28,68.28,0,0,1-22.08-3.62,45.83,45.83,0,0,1-18.65-12q-8-8.37-12.94-21.51t-5-32.16q0-26.26,9.14-48.35a127.56,127.56,0,0,1,23.59-37.88,109.53,109.53,0,0,1,32.17-24.55q17.7-8.74,35.21-8.75a13.88,13.88,0,0,1,9.9,4A13.37,13.37,0,0,1,305.92,755a14.63,14.63,0,0,1-3.42,9.52,13.71,13.71,0,0,1-9.14,5A90,90,0,0,0,269,776.7a78.24,78.24,0,0,0-23.79,16.56q-10.85,10.85-17.89,27.59t-7,40q0,19,7.81,29.69t22.65,10.66a30.44,30.44,0,0,0,13-3.24q6.84-3.23,14.65-12.75t17.13-27q9.32-17.5,20.75-46.06-6.48-33.5-11.81-77.27T299.08,637q0-23.61,1.51-49.3t5-50.25a416.21,416.21,0,0,1,9.14-46.63A205.73,205.73,0,0,1,328.58,452q8.18-16.74,19.22-26.45a37,37,0,0,1,25.12-9.71q12.56,0,21.32,6.85t14.28,19Q414,453.9,416.7,471a246.78,246.78,0,0,1,2.67,37.68A518.51,518.51,0,0,1,411.75,597a863.44,863.44,0,0,1-18.84,84.51q-11.24,40.35-23.79,74.6T346.27,815.15Zm44.54-306.82q0-9.51-.57-20.56A129.8,129.8,0,0,0,387.57,467a63,63,0,0,0-5.51-16.18q-3.42-6.47-9.14-6.47-9.51,0-17.69,16.75t-14.29,44a547,547,0,0,0-9.7,61.66,662.68,662.68,0,0,0-3.62,69.48q0,33.5,2.67,67T336.38,763q11-29.29,20.94-60.33t17.31-63.38q7.42-32.35,11.81-65.28A499.18,499.18,0,0,0,390.81,508.33Z"/><path class="cls-1" d="M515.57,819.34A59.21,59.21,0,0,0,536.12,837q12.57,6.66,30.84,6.66a65.69,65.69,0,0,0,33.88-9,111.76,111.76,0,0,0,27.79-23.41A188.34,188.34,0,0,0,651.09,779Q661,761.09,669,743.2a13.78,13.78,0,0,1,5.33-6.28,14.33,14.33,0,0,1,7.61-2.1,13.26,13.26,0,0,1,10.47,4.57,14.8,14.8,0,0,1,4,9.9,12.47,12.47,0,0,1-.38,3.24,16.84,16.84,0,0,1-1.15,2.85q-26.26,57.87-57.29,87.17t-70.23,30.08q-25.12,0-43.4-9.71a90.93,90.93,0,0,1-30.07-25.13A105.8,105.8,0,0,1,476.36,803a137.32,137.32,0,0,1-5.71-38.83,127.56,127.56,0,0,1,4.76-35.79,90.46,90.46,0,0,1,13.7-28.54,66,66,0,0,1,21.32-19,55.33,55.33,0,0,1,27.22-6.85A44.22,44.22,0,0,1,555,677.54a49.89,49.89,0,0,1,15.42,10.27,50.87,50.87,0,0,1,11,16.18,53.44,53.44,0,0,1,4.19,21.7A80.41,80.41,0,0,1,580.29,755a99.05,99.05,0,0,1-14.67,25.51,124,124,0,0,1-22.26,21.69A163.29,163.29,0,0,1,515.57,819.34Zm-11.42-24.75A92,92,0,0,0,525.65,782a89.52,89.52,0,0,0,16.57-16.75,77.78,77.78,0,0,0,10.66-19.23,57.37,57.37,0,0,0,3.8-20.36q0-11.41-5.71-17.32a18,18,0,0,0-13.32-5.9,27.37,27.37,0,0,0-17.51,5.71A42.93,42.93,0,0,0,508.34,723a76.42,76.42,0,0,0-6.66,20.36,120.09,120.09,0,0,0-2.09,22.27,82.93,82.93,0,0,0,1.33,14.47Q502.24,787.74,504.15,794.59Z"/><path class="cls-1" d="M968.92,682.87q-1.53,3-6.28,12.75t-12.18,22.26q-7.43,12.57-17.32,26.27a173.68,173.68,0,0,1-22.08,25.12,120.29,120.29,0,0,1-26.27,18.85,62.85,62.85,0,0,1-29.68,7.42q-22.1,0-37.12-14.08T796.1,746.05q-12.95,21.71-30.83,34.45t-35.78,12.75A61.54,61.54,0,0,1,704,788.12a54.86,54.86,0,0,1-19.41-14.47,67.15,67.15,0,0,1-12.38-21.89,82.69,82.69,0,0,1-4.37-27.4q0-29.7,10.09-52.34t25.69-37.88A106.13,106.13,0,0,1,738,611.3q18.86-7.62,36.36-7.61a69.71,69.71,0,0,1,21.7,3.23A104.5,104.5,0,0,1,813,614a66,66,0,0,1,10.85,7c2.53,2.17,3.93,3.37,4.19,3.62a15.78,15.78,0,0,1,4.18,10.28A14.19,14.19,0,0,1,828.08,645a13.28,13.28,0,0,1-9.9,4.38,14,14,0,0,1-10.28-4.19c-.51-.51-1.66-1.46-3.43-2.86a43.1,43.1,0,0,0-7.22-4.37,59.1,59.1,0,0,0-10.85-4,54.47,54.47,0,0,0-14.28-1.72q-11.82,0-25.12,5.33a71.27,71.27,0,0,0-24.37,16.56q-11,11.24-18.46,28.17t-7.42,40.16a72.43,72.43,0,0,0,1.52,14.66,40.42,40.42,0,0,0,5.33,13.51,29.46,29.46,0,0,0,10.27,9.9q6.48,3.81,16,3.8c4.57,0,9.82-1.52,15.79-4.56a57.56,57.56,0,0,0,17.13-14.09,101.73,101.73,0,0,0,14.85-24q6.65-14.46,9.32-34.26a14.1,14.1,0,0,1,4.95-8.94,14.68,14.68,0,0,1,9.9-3.62,12.56,12.56,0,0,1,9.33,4.18,15.14,15.14,0,0,1,4.38,9.52q.36,7.24,1.51,20.37A125,125,0,0,0,822.18,735a63.59,63.59,0,0,0,12,22.46q8,9.53,22.08,9.52a37,37,0,0,0,18.09-5,85.79,85.79,0,0,0,17.51-13.13,148.22,148.22,0,0,0,16.36-18.65q7.8-10.47,14.28-21.13t11.42-20.56q4.94-9.89,8.37-17.13A14.52,14.52,0,0,1,947.8,665a14.32,14.32,0,0,1,7.79-2.28,13,13,0,0,1,10.47,4.76,15.42,15.42,0,0,1,4,10.08A13.5,13.5,0,0,1,968.92,682.87Z"/><path class="cls-1" d="M984.44,625.43a190,190,0,0,1-3.81,19.22c-1.51,6-3,11.17-4.37,15.61s-2.61,8-3.62,10.85a24.36,24.36,0,0,1-1.91,4.57q-3.81,8.76-13.32,8.75a14.76,14.76,0,0,1-9.89-4A12.82,12.82,0,0,1,943,670.34a6.1,6.1,0,0,1,.76-3.42,34.93,34.93,0,0,0,2.28-4.57,98.74,98.74,0,0,0,3.81-11.42q2.28-8,5.71-24.74c-4.32,0-8.75-.13-13.32-.38a41.53,41.53,0,0,1-12.76-2.67,22.09,22.09,0,0,1-9.7-7.23c-2.53-3.3-3.81-7.87-3.81-13.71q0-6.47,3.61-17.51A118.06,118.06,0,0,1,929.25,563,90.54,90.54,0,0,1,943,544.53q7.6-7.78,15.22-7.8a17.91,17.91,0,0,1,14.28,6.47A46.33,46.33,0,0,1,981,559a108.63,108.63,0,0,1,4.39,19.6,143.31,143.31,0,0,1,1.33,17.9c4.3,0,8.56-.06,12.75-.2s8.18-.19,12-.19q21.7,0,33.13,9.52T1056,636.85a155.68,155.68,0,0,1-1.13,18.27q-1.15,9.51-2.67,19.6t-2.66,20a167.42,167.42,0,0,0-1.15,19.41q0,13.7,3.81,22.65a41.18,41.18,0,0,0,9.51,14.27,32.47,32.47,0,0,0,12.18,7.43,38.87,38.87,0,0,0,11.81,2.09q16.35,0,30.83-10.66a145.19,145.19,0,0,0,26.65-25.69,248.23,248.23,0,0,0,21.88-31.79q9.72-16.74,16.18-29.31a13.59,13.59,0,0,1,5.33-5.33,14.7,14.7,0,0,1,7.24-1.9c4.57,0,8.11,1.46,10.65,4.38a14.48,14.48,0,0,1,3.81,9.7,15.13,15.13,0,0,1-1.52,6.85Q1198,692.43,1186.38,712a251.47,251.47,0,0,1-26.46,36.74,152.53,152.53,0,0,1-33.3,28.93,73.85,73.85,0,0,1-40.54,11.8,65.84,65.84,0,0,1-25.89-5.14,60,60,0,0,1-21.12-14.84,72,72,0,0,1-14.28-24q-5.32-14.26-5.32-32.16a190.65,190.65,0,0,1,3.8-37.88,182.33,182.33,0,0,0,3.81-36c0-4.82-1.09-8.43-3.24-10.85s-6.92-3.62-14.27-3.62H998C993.77,625,989.26,625.18,984.44,625.43Zm-25.5-28.17c0-1.78-.07-4.12-.19-7s-.38-5.77-.76-8.57a46.27,46.27,0,0,0-1.53-7.23c-.63-2-1.33-3-2.09-3s-1.71,1-2.86,2.86-2.34,4.18-3.61,6.85a74.11,74.11,0,0,0-3.43,8.56q-1.53,4.58-2.28,7.62Z"/><path class="cls-1" d="M723,890.2l-2.64,21.47H713.9l2.65-21.47h-3.64l.73-6h3.64l1.57-12.73h6.44l-1.58,12.73h5.95l-.73,6Z"/><path class="cls-1" d="M750,862.46l-3,24.1a12.74,12.74,0,0,1,7.87-3,9.27,9.27,0,0,1,6.41,2.12,6.88,6.88,0,0,1,2.48,5.51c0,.54,0,1.16-.09,1.85s-.14,1.47-.23,2.35l-2,16.28H755L757.08,895a18.28,18.28,0,0,0,.17-2.42q0-3.68-4.31-3.67-6.18,0-7.2,8.36L744,911.67h-6.43l6.05-49.21Z"/><path class="cls-1" d="M783,900.25a6.54,6.54,0,0,0,2.11,5,7.68,7.68,0,0,0,5.41,2,8,8,0,0,0,6.94-3.39l4.8,2.66a15.19,15.19,0,0,1-5.15,4.72,14.71,14.71,0,0,1-6.71,1.37q-6.37,0-10.16-3.76a13.56,13.56,0,0,1-3.79-10,15.41,15.41,0,0,1,4.17-11,13.73,13.73,0,0,1,10.46-4.4,12.25,12.25,0,0,1,9.65,4q3.57,4,3.58,10.69c0,.46,0,1.22-.09,2.27Zm14.78-5.18q-1-6.36-7-6.36-5.67,0-7.4,6.36Z"/><path class="cls-1" d="M852.75,862.46l-6,49.21h-6.44l6.06-49.21Z"/><path class="cls-1" d="M868.28,900.25a6.53,6.53,0,0,0,2.1,5,7.7,7.7,0,0,0,5.42,2,8,8,0,0,0,6.93-3.39l4.81,2.66a15.21,15.21,0,0,1-5.16,4.72,14.69,14.69,0,0,1-6.7,1.37q-6.37,0-10.17-3.76a13.56,13.56,0,0,1-3.79-10,15.46,15.46,0,0,1,4.17-11,13.76,13.76,0,0,1,10.47-4.4,12.23,12.23,0,0,1,9.64,4q3.57,4,3.58,10.69c0,.46,0,1.22-.09,2.27Zm14.78-5.18c-.69-4.24-3-6.36-7-6.36-3.78,0-6.26,2.12-7.41,6.36Z"/><path class="cls-1" d="M910.79,890.2l-2.66,21.47h-6.44l2.65-21.47H900.7l.73-6h3.64l1.58-12.73h6.44l-1.57,12.73h5.94l-.73,6Z"/><path class="cls-1" d="M934.27,890.2l-2.65,21.47h-6.45l2.65-21.47h-3.64l.73-6h3.64l1.58-12.73h6.44L935,884.22h5.94l-.73,6Z"/><path class="cls-1" d="M955.88,900.25a6.53,6.53,0,0,0,2.1,5,7.69,7.69,0,0,0,5.42,2,8,8,0,0,0,6.94-3.39l4.8,2.66a15.37,15.37,0,0,1-5.15,4.72,14.71,14.71,0,0,1-6.71,1.37q-6.37,0-10.17-3.76t-3.78-10a15.49,15.49,0,0,1,4.16-11,13.75,13.75,0,0,1,10.46-4.4,12.25,12.25,0,0,1,9.65,4q3.58,4,3.58,10.69c0,.46,0,1.22-.08,2.27Zm14.78-5.18q-1-6.36-7-6.36-5.68,0-7.4,6.36Z"/><path class="cls-1" d="M998.57,884.22l-.29,2.36q3.26-3.08,6.58-3.08a7.81,7.81,0,0,1,5.31,2.12l-4.11,5.31a5.54,5.54,0,0,0-3.55-1.52,4.72,4.72,0,0,0-2.17.48,4.4,4.4,0,0,0-1.62,1.52,9.58,9.58,0,0,0-1.13,2.66,25.6,25.6,0,0,0-.71,3.91l-1.7,13.69h-6.43l3.38-27.45Z"/><path class="cls-1" d="M1037.78,887.26l-3.64,3.64c-1.71-1.53-3.3-2.3-4.75-2.3a3.66,3.66,0,0,0-2.47.83,2.6,2.6,0,0,0-1,2.05,2.77,2.77,0,0,0,.81,2,16.39,16.39,0,0,0,3.42,2.27,16.14,16.14,0,0,1,5,3.79,6.89,6.89,0,0,1,1.34,4.4,7.93,7.93,0,0,1-2.71,6.27,10.82,10.82,0,0,1-7.2,2.33q-6,0-10-5.45l4.22-2.94c1.73,2.07,3.58,3.11,5.53,3.11a4,4,0,0,0,2.68-.87,2.86,2.86,0,0,0,1-2.27,2.56,2.56,0,0,0-.84-2,12.35,12.35,0,0,0-1.43-1c-.69-.45-1.6-1-2.77-1.61a13.12,13.12,0,0,1-4.28-3.35,7.13,7.13,0,0,1-1.2-4.2,7.91,7.91,0,0,1,2.74-6.17,10.05,10.05,0,0,1,7-2.45A12,12,0,0,1,1037.78,887.26Z"/><path class="cls-1" d="M1102.81,897.69a14.22,14.22,0,0,1-4.37,10.57,14.67,14.67,0,0,1-10.72,4.29,15.09,15.09,0,0,1-10.9-4,13.67,13.67,0,0,1-4.25-10.32,14.09,14.09,0,0,1,4.4-10.61,15.36,15.36,0,0,1,11.07-4.25,14.55,14.55,0,0,1,10.63,4A13.67,13.67,0,0,1,1102.81,897.69Zm-6.5-.32a8.51,8.51,0,0,0-2.3-6.27,8,8,0,0,0-6-2.39,8.49,8.49,0,0,0-6.42,2.66,9.43,9.43,0,0,0-2.53,6.72,9,9,0,0,0,2.4,6.56,8.08,8.08,0,0,0,6.17,2.54,8,8,0,0,0,6.23-2.77A10.08,10.08,0,0,0,1096.31,897.37Z"/><path class="cls-1" d="M1123.88,890.2l-2.63,21.47h-6.44l2.65-21.47h-4.2l.73-6h4.2l1.52-12.27c.39-3.26,1.26-5.66,2.65-7.19a7.56,7.56,0,0,1,5.92-2.3,13,13,0,0,1,5.44,1.48l-.7,5.66a5.43,5.43,0,0,0-3.32-1.46,3,3,0,0,0-2.59,1.2,11.09,11.09,0,0,0-1.2,4.39l-1.28,10.49h5.83l-.73,6Z"/><path class="cls-1" d="M753.06,961.81l-2.65,21.48H744l2.65-21.48H743l.73-6h3.64l1.58-12.74h6.43l-1.57,12.74h5.94l-.73,6Z"/><path class="cls-1" d="M808.86,955.84,791.2,986.17l-5.53-17.72-9.83,17.72-10-30.33h6.79l4.84,16.75,9.78-17.51,5.25,17.51,9-16.75Z"/><path class="cls-1" d="M846.18,969.3a14.21,14.21,0,0,1-4.37,10.58,14.7,14.7,0,0,1-10.72,4.28,15.09,15.09,0,0,1-10.9-4,13.67,13.67,0,0,1-4.25-10.31,14.07,14.07,0,0,1,4.4-10.61,15.33,15.33,0,0,1,11.07-4.26A14.6,14.6,0,0,1,842,959,13.65,13.65,0,0,1,846.18,969.3Zm-6.5-.32a8.51,8.51,0,0,0-2.3-6.27,8,8,0,0,0-6-2.38,8.49,8.49,0,0,0-6.41,2.65,9.4,9.4,0,0,0-2.54,6.73,9,9,0,0,0,2.4,6.56A8.07,8.07,0,0,0,831,978.8,7.92,7.92,0,0,0,837.2,976,10,10,0,0,0,839.68,969Z"/><path class="cls-1" d="M891.63,961.81,889,983.29h-6.44l2.65-21.48H881l.73-6h4.19l1.52-12.27q.59-4.89,2.65-7.2a7.56,7.56,0,0,1,5.92-2.3,13,13,0,0,1,5.44,1.49l-.7,5.65a5.44,5.44,0,0,0-3.32-1.46,3,3,0,0,0-2.59,1.2,11.3,11.3,0,0,0-1.19,4.4l-1.29,10.49h5.83l-.73,6Z"/><path class="cls-1" d="M916.24,955.84,916,958.2c2.18-2.06,4.37-3.09,6.59-3.09a7.78,7.78,0,0,1,5.3,2.13l-4.11,5.3a5.5,5.5,0,0,0-3.55-1.52,4.58,4.58,0,0,0-2.16.49A4.37,4.37,0,0,0,916.4,963a9.24,9.24,0,0,0-1.13,2.67,25.45,25.45,0,0,0-.71,3.9l-1.7,13.7h-6.43l3.38-27.45Z"/><path class="cls-1" d="M945.58,955.84l-3.38,27.45h-6.44l3.39-27.45Zm2-13.06a3.29,3.29,0,0,1-1,2.42,3.45,3.45,0,0,1-4.93,0,3.61,3.61,0,0,1-1-2.53,3.43,3.43,0,0,1,3.4-3.44,3.68,3.68,0,0,1,3.56,3.58Z"/><path class="cls-1" d="M963.75,971.87a6.5,6.5,0,0,0,2.11,5,7.68,7.68,0,0,0,5.41,1.95,8,8,0,0,0,6.94-3.38l4.8,2.65a15.19,15.19,0,0,1-5.15,4.72,14.58,14.58,0,0,1-6.71,1.37c-4.24,0-7.64-1.25-10.16-3.76a13.54,13.54,0,0,1-3.79-10,15.47,15.47,0,0,1,4.17-11,13.73,13.73,0,0,1,10.46-4.4,12.29,12.29,0,0,1,9.65,4q3.57,4,3.58,10.69c0,.47,0,1.22-.09,2.28Zm14.79-5.19q-1-6.34-7-6.35-5.67,0-7.4,6.35Z"/><path class="cls-1" d="M1006.42,955.84l-.29,2.53a12,12,0,0,1,7.72-3.2,9.11,9.11,0,0,1,6.43,2.24,8,8,0,0,1,2.36,6.12,45.67,45.67,0,0,1-.34,5l-1.84,14.75h-6.41l2-16.15c.08-.6.13-1.13.16-1.6s0-.88,0-1.25q0-3.74-4-3.73a6.28,6.28,0,0,0-4.25,1.52,7.13,7.13,0,0,0-2.16,2.91,11.71,11.71,0,0,0-.64,2.14c-.17.85-.33,1.82-.47,2.93l-1.63,13.23h-6.44l3.38-27.45Z"/><path class="cls-1" d="M1069.12,934.07l-6.07,49.22h-6.41l.35-2.95a17,17,0,0,1-4.13,2.89,11.3,11.3,0,0,1-4.26.7,12.55,12.55,0,0,1-9.44-3.82,13.73,13.73,0,0,1-3.67-9.9,15.11,15.11,0,0,1,4-10.76,13.25,13.25,0,0,1,10.11-4.28,11.45,11.45,0,0,1,5.24,1.08,16.5,16.5,0,0,1,4.64,3.76l3.17-25.94Zm-10.62,34.3a7.38,7.38,0,0,0-7.81-7.81,8,8,0,0,0-6.26,2.82,10.46,10.46,0,0,0-2.47,7.14,8.1,8.1,0,0,0,2.12,5.86,7.52,7.52,0,0,0,5.66,2.18,7.85,7.85,0,0,0,6.2-3A10.52,10.52,0,0,0,1058.5,968.37Z"/><path class="cls-1" d="M1098.25,958.87l-3.64,3.64q-2.56-2.29-4.75-2.3a3.68,3.68,0,0,0-2.46.83,2.56,2.56,0,0,0-1,2.05,2.7,2.7,0,0,0,.82,2,16,16,0,0,0,3.4,2.28,15.81,15.81,0,0,1,5,3.78,6.86,6.86,0,0,1,1.34,4.41,7.89,7.89,0,0,1-2.71,6.26,10.82,10.82,0,0,1-7.2,2.33q-6,0-10-5.45l4.23-2.94c1.72,2.08,3.57,3.12,5.53,3.12a3.9,3.9,0,0,0,2.66-.88,2.87,2.87,0,0,0,1-2.27,2.52,2.52,0,0,0-.85-2,11.27,11.27,0,0,0-1.42-1c-.68-.44-1.61-1-2.76-1.6a13.34,13.34,0,0,1-4.29-3.35,7.17,7.17,0,0,1-1.2-4.2,8,8,0,0,1,2.74-6.18,10.08,10.08,0,0,1,7-2.45A12,12,0,0,1,1098.25,958.87Z"/></svg>