<svg id="Layer_1" data-name="Layer 1" xmlns="http://www.w3.org/2000/svg" viewBox="0 0 450 150"><defs><style>.cls-1,.cls-2,.cls-3,.cls-4{fill:none;}.cls-2{stroke:#f4481e;}.cls-2,.cls-3,.cls-4{stroke-miterlimit:10;}.cls-2,.cls-3{stroke-width:3px;}.cls-3,.cls-4{stroke:#f04a23;}.cls-4{stroke-width:1.5px;}.cls-5{font-size:35px;fill:#f04a23;font-family:FuturaPT-Book, Futura PT;}</style></defs><title>Artboard 2</title><rect class="cls-1" x="40" y="25.5" width="100" height="100"/><rect class="cls-1" x="40" y="25.5" width="100" height="100"/><path class="cls-2" d="M84.89,42.81,63,30.37c-3-1.67-5.62-1.51-7.24.05h0A6.94,6.94,0,0,0,54,35.58v78.8a7.19,7.19,0,0,0,1.77,5.16h0c1.67,1.61,4.27,1.77,7.24,0l69.48-39.48c5-2.81,5-7.4,0-10.26l-6.88-3.91"/><path class="cls-3" d="M125.41,84.07A32.69,32.69,0,0,0,126.66,75a33.34,33.34,0,1,0-42,32.18Z"/><circle class="cls-2" cx="93.32" cy="75.01" r="20.83"/><path class="cls-4" d="M93.58,64.33V76.64a4.85,4.85,0,0,0-7,5.76,4.78,4.78,0,0,0,4.59,3.28h0a5,5,0,0,0,5-4.86V69h4.68V64.33Z"/><text class="cls-5" transform="translate(185 86.18)">Google Play</text><rect class="cls-2" x="10.5" y="3.5" width="429" height="143" rx="12" ry="12"/></svg>