<svg id="Layer_1" data-name="Layer 1" xmlns="http://www.w3.org/2000/svg" viewBox="0 0 450 150"><defs><style>.cls-1,.cls-4{fill:none;stroke-miterlimit:10;stroke-width:3px;}.cls-1{stroke:#eb5f38;}.cls-2{font-size:35px;fill:#f04a23;font-family:FuturaPT-Book, Futura PT;}.cls-3{letter-spacing:-0.01em;}.cls-4{stroke:#f4481e;}</style></defs><title>Artboard 3</title><path id="Combined-Shape" class="cls-1" d="M98.26,43S123,35.15,135.43,40.9v79.5c-17.38-8.12-34.61,7.75-51.8,0V106.64M107.37,77.7l1.79-.4c2.2-.51,2.42-1.9,2.42-3.66V65.19c0-1.87-.22-3-2.42-2.52l-1.79.43Zm0,8.42v20.7a77.5,77.5,0,0,1-9.55,1.65V56.74a103.56,103.56,0,0,0,13.54-2.56c8.12-1.83,9.8,2.19,9.84,8.52V73.06a11,11,0,0,1-9.33,12Z"/><path id="Combined-Shape-2" class="cls-1" d="M84,106.24c-12.73,1.1-25.87,8-38.6,2.19V29.12c17.45,7.94,34.9-7.94,52.39,0V43.57M69.36,64.39,71.22,64c1.94-.44,2.67-1.28,2.67-3.66V53.23c0-2.23-.44-2.86-2.37-2.42l-2.16.51Zm0,30.65a69.69,69.69,0,0,1-9.51,1.61V45a128.13,128.13,0,0,0,15-2.89c5.82-1.28,8.75,1.68,8.75,7.32v8.15a8.28,8.28,0,0,1-4.25,7.32,5.28,5.28,0,0,1,4.25,5.78V88.2a7,7,0,0,0,.76,3.66v.37a66.49,66.49,0,0,0-9.51,1.5c-.47-.44-.84-1.5-.84-3.66V75c0-2.42-.59-2.93-2.52-2.49l-2.16.37Z"/><text class="cls-2" transform="translate(209.97 88.01)"><tspan class="cls-3">R</tspan><tspan x="17.22" y="0">a</tspan><tspan class="cls-3" x="35.63" y="0">d</tspan><tspan x="53.69" y="0">io Public</tspan></text><rect class="cls-4" x="10.5" y="3.5" width="429" height="143" rx="12" ry="12"/></svg>